<svg xmlns="http://www.w3.org/2000/svg" xmlns:xlink="http://www.w3.org/1999/xlink" zoomAndPan="magnify" preserveAspectRatio="xMidYMid meet" version="1.0" viewBox="118.23 129.13 139.47 112.17"><defs><g/><clipPath id="b8c221ea9e"><path d="M 180 129.132812 L 206 129.132812 L 206 137 L 180 137 Z M 180 129.132812 " clip-rule="nonzero"/></clipPath><clipPath id="5cc3931f19"><path d="M 150.414062 166 L 214 166 L 214 200 L 150.414062 200 Z M 150.414062 166 " clip-rule="nonzero"/></clipPath></defs><g fill="#000000" fill-opacity="1"><g transform="translate(116.812497, 241.118833)"><g><path d="M 1.421875 0 L 1.421875 -14.234375 L 11.234375 -14.234375 L 11.234375 -11.8125 L 4.453125 -11.8125 L 4.453125 -8.453125 L 10.8125 -8.453125 L 10.8125 -6.015625 L 4.453125 -6.015625 L 4.453125 -2.421875 L 11.234375 -2.421875 L 11.234375 0 Z M 1.421875 0 "/></g></g></g><g fill="#000000" fill-opacity="1"><g transform="translate(128.787777, 241.118833)"><g><path d="M 12.296875 0 L 10.9375 -3.15625 L 4.28125 -3.15625 L 2.921875 0 L -0.21875 0 L 6.3125 -14.234375 L 8.84375 -14.234375 L 15.375 0 Z M 5.3125 -5.546875 L 9.921875 -5.546875 L 7.625 -10.875 Z M 5.3125 -5.546875 "/></g></g></g><g fill="#000000" fill-opacity="1"><g transform="translate(143.961795, 241.118833)"><g><path d="M 6.40625 0.1875 C 5.320312 0.1875 4.28125 0.0390625 3.28125 -0.25 C 2.289062 -0.539062 1.46875 -0.941406 0.8125 -1.453125 L 1.8125 -3.703125 C 3.1875 -2.742188 4.722656 -2.265625 6.421875 -2.265625 C 7.328125 -2.265625 8.019531 -2.40625 8.5 -2.6875 C 8.988281 -2.976562 9.234375 -3.382812 9.234375 -3.90625 C 9.234375 -4.351562 9.007812 -4.707031 8.5625 -4.96875 C 8.125 -5.226562 7.34375 -5.476562 6.21875 -5.71875 C 4.96875 -5.96875 3.972656 -6.273438 3.234375 -6.640625 C 2.492188 -7.015625 1.953125 -7.460938 1.609375 -7.984375 C 1.265625 -8.515625 1.09375 -9.171875 1.09375 -9.953125 C 1.09375 -10.804688 1.328125 -11.570312 1.796875 -12.25 C 2.273438 -12.9375 2.941406 -13.46875 3.796875 -13.84375 C 4.648438 -14.226562 5.640625 -14.421875 6.765625 -14.421875 C 7.773438 -14.421875 8.742188 -14.273438 9.671875 -13.984375 C 10.609375 -13.691406 11.359375 -13.289062 11.921875 -12.78125 L 10.921875 -10.546875 C 9.671875 -11.503906 8.289062 -11.984375 6.78125 -11.984375 C 5.976562 -11.984375 5.335938 -11.820312 4.859375 -11.5 C 4.378906 -11.175781 4.140625 -10.742188 4.140625 -10.203125 C 4.140625 -9.878906 4.226562 -9.609375 4.40625 -9.390625 C 4.59375 -9.179688 4.894531 -8.992188 5.3125 -8.828125 C 5.738281 -8.660156 6.347656 -8.5 7.140625 -8.34375 C 8.960938 -7.9375 10.273438 -7.410156 11.078125 -6.765625 C 11.890625 -6.128906 12.296875 -5.257812 12.296875 -4.15625 C 12.296875 -2.820312 11.773438 -1.765625 10.734375 -0.984375 C 9.703125 -0.203125 8.257812 0.1875 6.40625 0.1875 Z M 6.40625 0.1875 "/></g></g></g><g fill="#000000" fill-opacity="1"><g transform="translate(157.096613, 241.118833)"><g><path d="M 13.875 -14.234375 L 7.984375 -5.515625 L 7.984375 0 L 4.859375 0 L 4.859375 -5.546875 L -1.015625 -14.234375 L 2.515625 -14.234375 L 6.40625 -8.15625 L 10.3125 -14.234375 Z M 13.875 -14.234375 "/></g></g></g><g fill="#000000" fill-opacity="1"><g transform="translate(169.93155, 241.118833)"><g/></g></g><g fill="#000000" fill-opacity="1"><g transform="translate(175.549328, 241.118833)"><g><path d="M 13.640625 -7.859375 L 13.640625 -0.875 C 12.941406 -0.539062 12.128906 -0.28125 11.203125 -0.09375 C 10.273438 0.09375 9.328125 0.1875 8.359375 0.1875 C 6.847656 0.1875 5.539062 -0.101562 4.4375 -0.6875 C 3.332031 -1.28125 2.484375 -2.125 1.890625 -3.21875 C 1.296875 -4.3125 1 -5.617188 1 -7.140625 C 1 -8.617188 1.296875 -9.90625 1.890625 -11 C 2.484375 -12.09375 3.320312 -12.9375 4.40625 -13.53125 C 5.5 -14.125 6.769531 -14.421875 8.21875 -14.421875 C 9.25 -14.421875 10.207031 -14.28125 11.09375 -14 C 11.976562 -13.71875 12.707031 -13.320312 13.28125 -12.8125 L 12.28125 -10.578125 C 11.613281 -11.054688 10.96875 -11.398438 10.34375 -11.609375 C 9.71875 -11.828125 9.035156 -11.9375 8.296875 -11.9375 C 5.554688 -11.9375 4.1875 -10.335938 4.1875 -7.140625 C 4.1875 -3.867188 5.617188 -2.234375 8.484375 -2.234375 C 9.265625 -2.234375 10.050781 -2.335938 10.84375 -2.546875 L 10.84375 -5.6875 L 8.046875 -5.6875 L 8.046875 -7.859375 Z M 13.640625 -7.859375 "/></g></g></g><g fill="#000000" fill-opacity="1"><g transform="translate(190.443447, 241.118833)"><g><path d="M 1.421875 0 L 1.421875 -14.234375 L 4.546875 -14.234375 L 4.546875 -2.546875 L 10.90625 -2.546875 L 10.90625 0 Z M 1.421875 0 "/></g></g></g><g fill="#000000" fill-opacity="1"><g transform="translate(201.818954, 241.118833)"><g><path d="M 7.953125 0.1875 C 6.546875 0.1875 5.316406 -0.109375 4.265625 -0.703125 C 3.222656 -1.296875 2.414062 -2.144531 1.84375 -3.25 C 1.28125 -4.363281 1 -5.660156 1 -7.140625 C 1 -8.617188 1.28125 -9.90625 1.84375 -11 C 2.414062 -12.09375 3.222656 -12.9375 4.265625 -13.53125 C 5.316406 -14.125 6.546875 -14.421875 7.953125 -14.421875 C 9.367188 -14.421875 10.597656 -14.125 11.640625 -13.53125 C 12.679688 -12.9375 13.476562 -12.09375 14.03125 -11 C 14.59375 -9.90625 14.875 -8.617188 14.875 -7.140625 C 14.875 -5.660156 14.59375 -4.363281 14.03125 -3.25 C 13.476562 -2.144531 12.679688 -1.296875 11.640625 -0.703125 C 10.597656 -0.109375 9.367188 0.1875 7.953125 0.1875 Z M 7.953125 -2.265625 C 9.160156 -2.265625 10.097656 -2.679688 10.765625 -3.515625 C 11.441406 -4.359375 11.78125 -5.566406 11.78125 -7.140625 C 11.78125 -8.710938 11.441406 -9.910156 10.765625 -10.734375 C 10.097656 -11.566406 9.160156 -11.984375 7.953125 -11.984375 C 6.753906 -11.984375 5.816406 -11.566406 5.140625 -10.734375 C 4.472656 -9.910156 4.140625 -8.710938 4.140625 -7.140625 C 4.140625 -5.554688 4.472656 -4.347656 5.140625 -3.515625 C 5.816406 -2.679688 6.753906 -2.265625 7.953125 -2.265625 Z M 7.953125 -2.265625 "/></g></g></g><g fill="#000000" fill-opacity="1"><g transform="translate(217.712679, 241.118833)"><g><path d="M 10.5625 -7.359375 C 11.382812 -7.117188 12.019531 -6.695312 12.46875 -6.09375 C 12.925781 -5.5 13.15625 -4.769531 13.15625 -3.90625 C 13.15625 -2.695312 12.707031 -1.742188 11.8125 -1.046875 C 10.925781 -0.347656 9.71875 0 8.1875 0 L 1.421875 0 L 1.421875 -14.234375 L 7.984375 -14.234375 C 9.460938 -14.234375 10.628906 -13.90625 11.484375 -13.25 C 12.347656 -12.59375 12.78125 -11.691406 12.78125 -10.546875 C 12.78125 -9.796875 12.582031 -9.140625 12.1875 -8.578125 C 11.789062 -8.015625 11.25 -7.609375 10.5625 -7.359375 Z M 4.453125 -8.4375 L 7.453125 -8.4375 C 8.253906 -8.4375 8.851562 -8.570312 9.25 -8.84375 C 9.644531 -9.125 9.84375 -9.550781 9.84375 -10.125 C 9.84375 -10.707031 9.644531 -11.140625 9.25 -11.421875 C 8.851562 -11.703125 8.253906 -11.84375 7.453125 -11.84375 L 4.453125 -11.84375 Z M 7.8125 -2.40625 C 8.65625 -2.40625 9.265625 -2.546875 9.640625 -2.828125 C 10.023438 -3.117188 10.21875 -3.578125 10.21875 -4.203125 C 10.21875 -4.835938 10.023438 -5.300781 9.640625 -5.59375 C 9.265625 -5.894531 8.65625 -6.046875 7.8125 -6.046875 L 4.453125 -6.046875 L 4.453125 -2.40625 Z M 7.8125 -2.40625 "/></g></g></g><g fill="#000000" fill-opacity="1"><g transform="translate(231.627195, 241.118833)"><g><path d="M 12.296875 0 L 10.9375 -3.15625 L 4.28125 -3.15625 L 2.921875 0 L -0.21875 0 L 6.3125 -14.234375 L 8.84375 -14.234375 L 15.375 0 Z M 5.3125 -5.546875 L 9.921875 -5.546875 L 7.625 -10.875 Z M 5.3125 -5.546875 "/></g></g></g><g fill="#000000" fill-opacity="1"><g transform="translate(246.801212, 241.118833)"><g><path d="M 1.421875 0 L 1.421875 -14.234375 L 4.546875 -14.234375 L 4.546875 -2.546875 L 10.90625 -2.546875 L 10.90625 0 Z M 1.421875 0 "/></g></g></g><g clip-path="url(#b8c221ea9e)"><path fill="#3871c1" d="M 205.570312 136.824219 C 204.476562 136.085938 203 135.121094 201.863281 134.445312 L 200.683594 133.804688 C 191.027344 129.128906 181.429688 129.4375 181.027344 129.453125 C 180.75 129.46875 180.386719 129.484375 180.113281 129.503906 C 186.144531 129.265625 198.347656 131.675781 205.570312 136.824219 " fill-opacity="1" fill-rule="nonzero"/></g><path fill="#3871c1" d="M 219.839844 156.6875 L 219.414062 155.390625 C 218.933594 154.164062 218.285156 152.527344 217.734375 151.328125 C 210.449219 138.597656 179.796875 133.382812 166.089844 134.269531 C 185.519531 134.582031 215.367188 143.257812 219.839844 156.6875 " fill-opacity="1" fill-rule="nonzero"/><path fill="#3871c1" d="M 219.535156 180.289062 C 219.996094 178.710938 220.558594 176.59375 220.90625 174.988281 L 221.089844 173.890625 C 222.285156 157.347656 182.046875 146.296875 155.371094 147.203125 C 189.878906 149.429688 224.648438 164.050781 219.535156 180.289062 " fill-opacity="1" fill-rule="nonzero"/><g clip-path="url(#5cc3931f19)"><path fill="#3871c1" d="M 204.585938 199.90625 C 205.832031 198.996094 207.460938 197.730469 208.640625 196.742188 C 209.375 196.039062 210.367188 195.117188 211.066406 194.382812 C 224.390625 178.808594 182.695312 165.832031 150.425781 166.25 C 198.835938 170.675781 220.242188 187.847656 205.691406 199.109375 C 205.367188 199.359375 204.917969 199.667969 204.585938 199.90625 " fill-opacity="1" fill-rule="nonzero"/></g><path fill="#3871c1" d="M 182.648438 205.097656 C 188.246094 207.875 198.640625 205.015625 199.210938 199.527344 C 199.988281 191.996094 176.402344 184.546875 154.148438 185.292969 C 185.613281 187.550781 200.425781 197.683594 193.429688 203.101562 C 190.945312 205.027344 185.804688 205.976562 182.648438 205.097656 " fill-opacity="1" fill-rule="nonzero"/></svg>