<svg width="33" height="32" viewBox="0 0 33 32" fill="none" xmlns="http://www.w3.org/2000/svg">
<g id="Frame" clip-path="url(#clip0_240_1937)">
<path id="Vector" fill-rule="evenodd" clip-rule="evenodd" d="M27.4781 27.6463C29.0682 26.1522 30.335 24.3477 31.2002 22.3445C32.0653 20.3413 32.5103 18.182 32.5078 16C32.5078 7.16307 25.3447 0 16.5078 0C7.6709 0 0.507823 7.16307 0.507823 16C0.505298 18.182 0.950353 20.3413 1.81547 22.3445C2.6806 24.3477 3.9474 26.1522 5.53756 27.6463C8.50279 30.4474 12.4288 32.0055 16.5078 32C20.5868 32.0055 24.5128 30.4474 27.4781 27.6463ZM6.89962 25.5376C8.05174 24.0962 9.51379 22.9329 11.1772 22.134C12.8406 21.3351 14.6625 20.9212 16.5078 20.9231C18.3531 20.9212 20.1751 21.3351 21.8385 22.134C23.5018 22.9329 24.9639 24.0962 26.116 25.5376C24.859 26.8073 23.3625 27.8147 21.7131 28.5015C20.0638 29.1883 18.2944 29.5408 16.5078 29.5384C14.7212 29.5408 12.9519 29.1883 11.3025 28.5015C9.65317 27.8147 8.1566 26.8073 6.89962 25.5376ZM22.6617 11.0769C22.6617 12.709 22.0133 14.2743 20.8592 15.4283C19.7052 16.5824 18.1399 17.2308 16.5078 17.2308C14.8757 17.2308 13.3105 16.5824 12.1564 15.4283C11.0023 14.2743 10.354 12.709 10.354 11.0769C10.354 9.44482 11.0023 7.87956 12.1564 6.72549C13.3105 5.57142 14.8757 4.92307 16.5078 4.92307C18.1399 4.92307 19.7052 5.57142 20.8592 6.72549C22.0133 7.87956 22.6617 9.44482 22.6617 11.0769Z" fill="#377DFF"/>
</g>
<defs>
<clipPath id="clip0_240_1937">
<rect width="32" height="32" fill="white" transform="translate(0.5)"/>
</clipPath>
</defs>
</svg>
